PathFileType	4	(X/Y/Z)	G:\GRF\jawan data\CompiledGRF\03. Mohit Kumar\0231~ac~Walking 08_markers.trc
DataRate	CameraRate	NumFrames	NumMarkers	Units	OrigDataRate	OrigDataStartFrame	OrigNumFrames
100.000000	100.000000	8	18	mm	100.000000	657	876
Frame#	Time	c7			r should			l should			sacrum			r asis			r bar 1			r knee 1			r bar 2			r mall			r heel			r met			l asis			l bar 1			l knee 1			l bar 2			l mall			l heel			l met			
		X1	Y1	Z1	X2	Y2	Z2	X3	Y3	Z3	X4	Y4	Z4	X5	Y5	Z5	X6	Y6	Z6	X7	Y7	Z7	X8	Y8	Z8	X9	Y9	Z9	X10	Y10	Z10	X11	Y11	Z11	X12	Y12	Z12	X13	Y13	Z13	X14	Y14	Z14	X15	Y15	Z15	X16	Y16	Z16	X17	Y17	Z17	X18	Y18	Z18	

658	6.57	1596.040161132813	1486.9755859375	252.828125	1658.858154296875	1439.103881835938	410.7242126464844	1627.12451171875	1449.327392578125	87.60995483398438	1468.386352539063	1035.372314453125	248.1285705566406	1649.750244140625	989.5480346679688	363.05029296875	1497.812622070313	594.5738525390625	422.3792419433594	1488.86328125	509.2403259277344	366.884033203125	1373.5654296875	199.9356689453125	375.8670043945313	1361.24072265625	74.78779602050781	307.8398742675781	1300.714233398438	45.18539810180664	261.5740966796875	1508.19873046875	31.22781562805176	304.2867126464844	1632.551513671875	1001.650451660156	118.1436157226563	1723.913208007813	605.841064453125	32.62459564208984	1779.7607421875	534.2295532226563	86.20185852050781	1787.417114257813	256.5943603515625	35.07111358642578	1824.926147460938	83.39324951171875	99.42745971679688	nan	nan	nan	1967.481079101563	77.25119781494141	118.6807861328125	
659	6.58	1605.867309570313	1485.564208984375	252.1500244140625	1668.665893554688	1437.534790039063	409.9674072265625	1636.669311523438	1447.886474609375	86.75719451904297	1478.284912109375	1034.1650390625	247.4208831787109	1659.00537109375	987.9835815429688	362.620849609375	1504.4140625	593.9592895507813	421.9481201171875	1495.021484375	508.7075805664063	366.5342102050781	1375.867919921875	200.8180847167969	375.8681945800781	1362.328491210938	75.93709564208984	308.0455932617188	1300.961547851563	46.21016311645508	261.7991638183594	1507.6650390625	30.68692588806152	304.23291015625	1642.159790039063	1000.101318359375	117.73876953125	1731.310424804688	602.8795166015625	33.80471420288086	1787.000610351563	532.0208740234375	87.90142822265625	1803.634765625	255.5909118652344	36.37723159790039	1848.91943359375	83.82875061035156	100.2711029052734	nan	nan	nan	1991.776977539063	82.83470153808594	119.3851547241211	
660	6.59	1616.02685546875	1484.125366210938	251.2160491943359	1678.696899414063	1436.074584960938	409.1251220703125	1646.00927734375	1446.400390625	85.92368316650391	1487.762573242188	1033.164794921875	246.5094757080078	1668.329223632813	986.4498291015625	362.2109375	1511.40283203125	593.2387084960938	421.5336303710938	1501.484985351563	508.0507507324219	366.1286926269531	1378.41845703125	201.6914520263672	375.9298400878906	1364.190551757813	77.63743591308594	308.4228515625	1301.847900390625	47.34296035766602	262.2023315429688	1508.3525390625	31.07550430297852	304.0998840332031	1651.80322265625	998.5787963867188	117.3049774169922	1738.101440429688	599.8471069335938	35.13368988037109	1793.980224609375	529.8345947265625	89.39978790283203	1818.969848632813	254.842041015625	37.74174880981445	1871.0810546875	84.63959503173828	101.3658981323242	nan	nan	nan	2014.206909179688	88.20787048339844	120.313835144043	
661	6.600000000000001	1625.80615234375	1482.783935546875	250.4818725585938	1688.830078125	1434.715454101563	408.2785949707031	1655.682250976563	1445.00439453125	85.04608154296875	1497.929077148438	1032.184326171875	245.5094146728516	1677.691528320313	984.9702758789063	361.8347778320313	1518.740356445313	592.5013427734375	421.0084228515625	1508.344970703125	507.3851318359375	365.6535949707031	1381.1865234375	202.6589660644531	376.0478820800781	1364.7548828125	78.53277587890625	308.7229309082031	1302.459228515625	48.93333435058594	262.5775146484375	1508.455078125	31.09011077880859	303.9888610839844	1661.519409179688	997.1536254882813	116.7783355712891	1744.726440429688	596.9803466796875	36.51067733764648	1801.06640625	527.8179931640625	90.78511810302734	1833.757202148438	254.1807556152344	39.1812629699707	1891.406616210938	85.73152160644531	102.6758346557617	nan	nan	nan	2034.791259765625	93.1663818359375	121.7264251708984	
662	6.61	1635.987548828125	1481.405029296875	249.6033477783203	1698.945556640625	1433.515502929688	407.3206176757813	1665.43701171875	1443.6357421875	84.04905700683594	1506.875732421875	1031.4921875	244.5113067626953	1687.264770507813	983.6324462890625	361.4413757324219	1526.220092773438	592.11328125	420.2947082519531	1515.56787109375	506.906494140625	365.1462707519531	1384.3662109375	203.8331451416016	376.221923828125	1365.119873046875	79.39197540283203	309.0669555664063	1302.174438476563	51.14968490600586	262.9116516113281	1508.51953125	31.07074928283691	304.0216979980469	1671.268798828125	995.8284301757813	116.2312545776367	1751.51416015625	594.4310913085938	37.69615936279297	1808.426879882813	526.0067138671875	92.01446533203125	1847.809692382813	253.5202789306641	40.72896575927734	1909.413452148438	86.54055023193359	104.5106506347656	nan	nan	nan	2053.144287109375	97.14190673828125	123.6068725585938	
663	6.62	1645.3857421875	1480.178833007813	248.7710266113281	1708.926147460938	1432.422973632813	406.3976135253906	1675.1298828125	1442.318359375	83.07038879394531	1516.821166992188	1030.513305664063	243.4846649169922	1697.008178710938	982.4024658203125	360.9753723144531	1533.908081054688	591.973388671875	419.4794921875	1522.911743164063	506.4781799316406	364.8106994628906	1387.433715820313	205.2575988769531	376.4523620605469	1365.74951171875	80.6497802734375	309.54736328125	1302.2216796875	53.43695449829102	263.4474487304688	1508.675903320313	31.05447959899902	304.0076293945313	1681.010864257813	994.614990234375	115.5538711547852	1758.957275390625	592.1983032226563	38.78818511962891	1816.131103515625	524.3627319335938	93.21251678466797	1861.0537109375	252.7219390869141	42.4232177734375	1925.379638671875	87.01316070556641	106.7786254882813	nan	nan	nan	2069.035400390625	99.86502075195313	125.8237380981445	
664	6.63	1655.3759765625	1479.031616210938	247.7420196533203	1719.12548828125	1431.463500976563	405.4488220214844	1685.097534179688	1441.141235351563	81.99240112304688	1527.101928710938	1029.370849609375	242.6181793212891	1706.8349609375	981.1788940429688	360.4015808105469	1541.600830078125	591.6078491210938	418.958251953125	1530.4404296875	506.1430969238281	364.6012878417969	1390.556396484375	206.9055786132813	376.7869567871094	1366.6640625	82.27449798583984	310.1469421386719	1302.753295898438	55.87660598754883	264.173095703125	1508.779541015625	30.98775482177734	304.046142578125	1690.87646484375	993.547119140625	114.7802047729492	1767.213623046875	590.2982788085938	39.68939971923828	1824.204711914063	522.830322265625	94.39529418945313	1873.381103515625	251.6353759765625	44.11986923217773	1939.114135742188	86.85508728027344	109.3420639038086	nan	nan	nan	2082.60595703125	101.1786499023438	128.6896362304688	
665	6.640000000000001	1664.923461914063	1478.070922851563	246.5664978027344	1729.384887695313	1430.692138671875	404.3527221679688	1695.084106445313	1439.998901367188	80.8895263671875	1537.801391601563	1028.156372070313	241.7401428222656	1716.994995117188	980.0449829101563	359.6938171386719	1549.34521484375	591.1057739257813	418.7320556640625	1538.181884765625	505.78515625	364.2709350585938	1393.75732421875	208.642578125	377.2866516113281	1367.68701171875	84.06814575195313	310.8900756835938	1302.7978515625	58.90916061401367	265.0782470703125	1508.765991210938	30.84075546264648	304.046142578125	1701.136840820313	992.6425170898438	113.8972549438477	1776.53173828125	588.8300170898438	40.41027069091797	1832.73193359375	521.4453125	95.47428131103516	1884.53955078125	250.2809448242188	46.00084686279297	1950.560913085938	85.97299194335938	112.0428085327148	nan	nan	nan	2093.72119140625	100.4374542236328	132.6527862548828	
